<svg xmlns="http://www.w3.org/2000/svg" xmlns:svg="http://www.w3.org/2000/svg" id="svg4" width="24" height="24" version="1.2" viewBox="0 0 24 24"><metadata id="metadata10"/><path id="path2" d="m 18.801185,5.4144899 c -0.943596,-0.9448065 -2.477546,-0.9448065 -3.421143,0 L 12.251656,8.5428761 9.1232697,5.4144899 c -0.9435968,-0.9448065 -2.4775464,-0.9448065 -3.4211431,0 -0.9448065,0.9448065 -0.9448065,2.4763366 0,3.4211431 l 3.1271764,3.128386 -3.1271764,3.128387 c -0.9448065,0.944806 -0.9448065,2.476336 0,3.421143 0.4717984,0.473008 1.0911849,0.708907 1.7105715,0.708907 0.6193866,0 1.2387732,-0.235899 1.7105716,-0.708907 l 3.1283863,-3.128386 3.128386,3.128386 c 0.471799,0.473008 1.091185,0.708907 1.710572,0.708907 0.619386,0 1.238773,-0.235899 1.710571,-0.708907 0.944807,-0.944807 0.944807,-2.476337 0,-3.421143 l -3.127176,-3.128387 3.127176,-3.128386 c 0.944807,-0.9448065 0.944807,-2.4763366 0,-3.4211431 z" style="stroke-width:1.20973945"/></svg>